<?xml version="1.0" encoding="UTF-8" standalone="no"?>
<svg xmlns:xlink="http://www.w3.org/1999/xlink" height="387.65px" width="608.35px" xmlns="http://www.w3.org/2000/svg">
  <g transform="matrix(1.0, 0.0, 0.0, 1.0, 254.65, 0.05)">
    <use height="37.85" transform="matrix(-0.4405, 0.8354, 0.8278, 0.4119, 316.3426, 309.7662)" width="18.25" xlink:href="#sprite0"/>
    <use height="33.15" transform="matrix(0.8556, 0.3488, -0.2642, 1.0171, 199.8441, 340.369)" width="18.9" xlink:href="#sprite1"/>
    <use height="39.4" transform="matrix(0.6285, -0.6382, 0.7488, 0.7374, 248.0856, 358.5371)" width="14.2" xlink:href="#sprite2"/>
    <use height="37.85" transform="matrix(0.4558, 0.7711, -0.8062, 0.4564, 155.1014, 276.816)" width="18.25" xlink:href="#sprite0"/>
    <use height="197.4" transform="matrix(0.8735, 0.2269, -0.234, 0.901, 182.9613, 157.6047)" width="195.45" xlink:href="#sprite3"/>
    <use height="19.95" transform="matrix(0.8785, 0.2282, -0.234, 0.901, 270.7024, 304.7175)" width="51.25" xlink:href="#sprite4"/>
    <use height="29.65" transform="matrix(-0.867, -0.2252, -0.234, 0.901, 327.8323, 274.7307)" width="14.95" xlink:href="#sprite5"/>
    <use height="32.05" transform="matrix(0.1882, -0.9866, -1.0312, -0.5365, 102.6775, 218.5843)" width="18.9" xlink:href="#sprite6"/>
    <use height="32.05" transform="matrix(-0.8814, -1.0E-4, -0.0999, 1.0489, 120.9832, 264.405)" width="18.9" xlink:href="#sprite6"/>
    <use height="32.05" transform="matrix(-0.8814, -1.0E-4, -0.0999, 1.0489, 101.5832, 264.555)" width="18.9" xlink:href="#sprite6"/>
    <use height="247.9" transform="matrix(0.8668, 0.0586, -0.0586, 0.8668, 98.2178, 57.264)" width="59.0" xlink:href="#sprite7"/>
    <use height="37.0" transform="matrix(-0.3029, 0.8084, 0.8084, 0.3029, 129.6672, 213.8997)" width="12.0" xlink:href="#sprite8"/>
    <use height="29.65" transform="matrix(0.8669, 0.0569, -0.0569, 0.8669, 102.3341, 157.5946)" width="14.95" xlink:href="#sprite5"/>
    <use height="19.95" transform="matrix(-0.5029, -0.034, -0.0576, 0.8518, 125.356, 195.9606)" width="51.25" xlink:href="#sprite4"/>
    <use height="32.05" transform="matrix(0.8814, -1.0E-4, 0.0999, 1.0489, 20.7168, 264.255)" width="18.9" xlink:href="#sprite6"/>
    <use height="32.05" transform="matrix(-0.0011, -1.0046, 1.1257, -0.3387, 35.6635, 212.6203)" width="18.9" xlink:href="#sprite6"/>
    <use height="32.05" transform="matrix(0.8814, -1.0E-4, 0.0999, 1.0489, 40.1168, 264.255)" width="18.9" xlink:href="#sprite6"/>
    <use height="251.7" transform="matrix(-0.8811, 0.0694, 0.0694, 0.8811, 38.6465, 64.5855)" width="48.5" xlink:href="#sprite9"/>
    <use height="26.55" transform="matrix(0.5112, -0.0402, 0.0682, 0.8659, 17.8853, 194.2053)" width="58.4" xlink:href="#sprite10"/>
    <use height="37.85" transform="matrix(0.8832, 0.0152, -0.0152, 0.8832, 1.3934, 216.1631)" width="18.25" xlink:href="#sprite0"/>
    <use height="23.35" transform="matrix(-0.8811, 0.0694, 0.0645, 0.8194, 40.32, 157.3697)" width="10.5" xlink:href="#sprite11"/>
    <use height="32.05" transform="matrix(0.5351, 0.8966, -0.5747, 0.7877, -80.0391, 136.8718)" width="18.4" xlink:href="#sprite12"/>
    <use height="37.0" transform="matrix(-0.5538, -0.7125, 0.7997, -0.6475, 4.2226, 92.9749)" width="12.0" xlink:href="#shape8"/>
    <use height="32.05" transform="matrix(0.5351, 0.8966, -0.5747, 0.7877, -37.6391, 136.8718)" width="18.4" xlink:href="#sprite12"/>
    <use height="178.1" transform="matrix(-0.7564, -0.1179, -0.1179, 0.7564, 15.6416, 18.9094)" width="160.65" xlink:href="#sprite13"/>
    <use height="29.65" transform="matrix(-0.8331, -0.1412, -0.1412, 0.8331, 4.0126, 58.5511)" width="14.95" xlink:href="#sprite5"/>
    <use height="30.15" transform="matrix(0.8031, 0.1361, -0.1412, 0.8331, -41.794, 89.2746)" width="57.0" xlink:href="#sprite14"/>
    <use height="37.0" transform="matrix(-0.8315, 0.3505, -0.4184, -0.94, -105.0608, 73.9969)" width="12.0" xlink:href="#shape8"/>
    <use height="32.05" transform="matrix(0.8932, -0.0094, 0.0063, 1.0393, -212.3032, 264.9624)" width="18.9" xlink:href="#sprite6"/>
    <use height="32.05" transform="matrix(0.8932, -0.0094, 0.0063, 1.0393, -167.6032, 264.7624)" width="18.9" xlink:href="#sprite6"/>
    <use height="147.5" transform="matrix(-0.8849, -0.0053, -0.0053, 0.8849, -127.3374, 138.0828)" width="143.0" xlink:href="#sprite15"/>
    <use height="29.65" transform="matrix(-0.8452, -0.0163, -0.0163, 0.8452, -132.1295, 188.0466)" width="14.95" xlink:href="#sprite5"/>
    <use height="6.65" transform="matrix(0.7372, 0.0142, -0.0163, 0.8452, -171.2261, 228.6777)" width="54.9" xlink:href="#sprite16"/>
    <use height="32.05" transform="matrix(1.0034, 0.0, 0.0, 1.0034, -102.053, 265.6003)" width="18.9" xlink:href="#sprite6"/>
    <use height="32.05" transform="matrix(1.0034, 0.0, 0.0, 1.0034, -59.053, 265.6003)" width="18.9" xlink:href="#sprite6"/>
    <use height="37.0" transform="matrix(-0.9691, 0.2597, 0.2597, 0.9691, -19.7857, 230.5419)" width="12.0" xlink:href="#sprite8"/>
    <use height="117.95" transform="matrix(-1.0109, 0.0, 0.0, 1.0034, 23.1044, 169.1801)" width="203.25" xlink:href="#sprite17"/>
    <use height="19.95" transform="matrix(1.0081, 0.0, 0.0, 1.0034, -91.3354, 219.4666)" width="51.25" xlink:href="#sprite4"/>
    <use height="37.0" transform="matrix(-1.0012, 0.0035, 0.0035, 1.0012, -122.193, 240.5288)" width="12.0" xlink:href="#sprite8"/>
    <use height="13.75" transform="matrix(-1.0034, 0.0, 0.0, 1.0034, -76.378, 194.474)" width="12.15" xlink:href="#sprite18"/>
    <use height="13.75" transform="matrix(-1.0034, 0.0, 0.0, 1.0034, -33.928, 193.874)" width="12.15" xlink:href="#sprite18"/>
  </g>
  <defs>
    <g id="sprite0" transform="matrix(1.0, 0.0, 0.0, 1.0, 12.25, 0.85)">
      <use height="37.85" transform="matrix(1.0, 0.0, 0.0, 1.0, -12.25, -0.85)" width="18.25" xlink:href="#shape0"/>
    </g>
    <g id="shape0" transform="matrix(1.0, 0.0, 0.0, 1.0, 12.25, 0.85)">
      <path d="M-5.4 1.75 Q-2.8 -0.35 0.15 -0.85 L0.15 1.15 Q-2.2 1.6 -4.3 3.35 -7.8 6.25 -9.0 11.25 -10.5 17.05 -8.05 22.15 -5.7 27.1 -1.25 28.3 L-1.75 33.3 Q-7.75 31.75 -10.65 24.85 -13.4 18.3 -11.35 11.1 -9.65 5.15 -5.4 1.75" fill="#000000" fill-rule="evenodd" stroke="none"/>
      <path d="M0.0 37.0 Q-2.5 37.0 -4.25 35.25 -6.0 33.5 -6.0 31.0 -6.0 28.5 -4.25 26.75 -2.5 25.0 0.0 25.0 2.5 25.0 4.25 26.75 6.0 28.5 6.0 31.0 6.0 33.5 4.25 35.25 2.5 37.0 0.0 37.0" fill="#000000" fill-rule="evenodd" stroke="none"/>
    </g>
    <g id="sprite1" transform="matrix(1.0, 0.0, 0.0, 1.0, 0.9, 1.0)">
      <use height="33.15" transform="matrix(1.0, 0.0, 0.0, 1.0, -0.9, -1.0)" width="18.9" xlink:href="#shape1"/>
    </g>
    <g id="shape1" transform="matrix(1.0, 0.0, 0.0, 1.0, 0.9, 1.0)">
      <path d="M18.0 32.15 L3.1 32.1 -0.9 32.1 Q1.95 28.6 4.65 23.1 7.9 16.5 7.6 13.0 7.15 7.45 3.8 4.1 L-0.5 0.0 0.0 -1.0 Q2.7 0.45 5.1 2.75 8.85 6.4 9.9 12.1 11.05 18.9 7.75 24.55 L10.6 24.75 Q16.75 25.95 18.0 32.15" fill="#000000" fill-rule="evenodd" stroke="none"/>
    </g>
    <g id="sprite2" transform="matrix(1.0, 0.0, 0.0, 1.0, 0.9, 1.0)">
      <use height="39.4" transform="matrix(1.0, 0.0, 0.0, 1.0, -0.9, -1.0)" width="14.2" xlink:href="#shape2"/>
    </g>
    <g id="shape2" transform="matrix(1.0, 0.0, 0.0, 1.0, 0.9, 1.0)">
      <path d="M3.8 3.45 L-0.5 -0.15 0.0 -1.0 Q2.7 0.25 5.1 2.25 8.85 5.45 9.9 10.45 10.4 13.1 8.55 17.95 7.05 21.85 5.0 25.0 10.35 26.9 12.5 31.55 14.65 36.2 11.0 38.0 7.7 39.65 3.4 34.55 0.45 31.1 -0.9 27.95 1.95 24.85 4.65 20.05 7.9 14.3 7.6 11.25 7.15 6.35 3.8 3.45" fill="#000000" fill-rule="evenodd" stroke="none"/>
    </g>
    <g id="sprite3" transform="matrix(1.0, 0.0, 0.0, 1.0, 97.7, 98.7)">
      <use height="197.4" transform="matrix(1.0, 0.0, 0.0, 1.0, -97.7, -98.7)" width="195.45" xlink:href="#shape3"/>
    </g>
    <g id="shape3" transform="matrix(1.0, 0.0, 0.0, 1.0, 97.7, 98.7)">
      <path d="M1.0 -98.7 Q41.9 -98.7 69.35 -71.6 96.8 -44.5 97.7 -2.0 98.6 40.5 70.25 69.6 41.9 98.7 1.0 98.7 -39.9 98.7 -68.8 69.8 -97.7 40.9 -97.7 0.0 -97.7 -40.9 -68.8 -69.8 -39.9 -98.7 1.0 -98.7 M0.95 -94.25 Q-38.1 -94.25 -65.7 -66.9 -93.3 -39.5 -93.3 -0.8 -93.3 37.9 -65.7 65.25 -38.1 92.65 0.95 92.65 40.0 92.65 67.1 65.1 94.15 37.55 93.3 -2.65 92.45 -42.95 66.25 -68.6 40.0 -94.25 0.95 -94.25" fill="#64a9e1" fill-opacity="0.7529412" fill-rule="evenodd" stroke="none"/>
      <path d="M0.95 -94.25 Q40.0 -94.25 66.25 -68.6 92.45 -42.95 93.3 -2.65 94.15 37.55 67.1 65.1 40.0 92.65 0.95 92.65 -38.1 92.65 -65.7 65.25 -93.3 37.9 -93.3 -0.8 -93.3 -39.5 -65.7 -66.9 -38.1 -94.25 0.95 -94.25" fill="url(#gradient0)" fill-rule="evenodd" stroke="none"/>
      <path d="M71.4 -55.2 Q76.35 -46.8 78.1 -38.85 79.95 -30.3 77.45 -24.75 74.7 -18.55 66.8 -17.4 59.9 -16.35 55.1 -20.5 51.4 -23.65 47.6 -31.5 L40.7 -46.5 Q36.1 -55.75 30.8 -61.4 26.05 -66.5 18.9 -71.3 L8.25 -77.95 Q3.35 -80.95 2.65 -82.55 1.75 -84.6 6.0 -86.4 16.2 -90.75 30.95 -86.3 46.4 -81.65 60.2 -69.2 66.5 -63.5 71.4 -55.2" fill="#ffffff" fill-rule="evenodd" stroke="none"/>
    </g>
    <radialGradient cx="0" cy="0" fx="460.8" fy="0" gradientTransform="matrix(0.0, 0.1173, -0.1183, 0.0, -1.0, 2.15)" gradientUnits="userSpaceOnUse" id="gradient0" r="819.2" spreadMethod="pad">
      <stop offset="0.0" stop-color="#eaf2ff" stop-opacity="0.7529412"/>
      <stop offset="1.0" stop-color="#a8d8ff" stop-opacity="0.7529412"/>
    </radialGradient>
    <g id="sprite4" transform="matrix(1.0, 0.0, 0.0, 1.0, 29.0, 9.95)">
      <use height="19.95" transform="matrix(1.0, 0.0, 0.0, 1.0, -29.0, -9.95)" width="51.25" xlink:href="#shape4"/>
    </g>
    <g id="shape4" transform="matrix(1.0, 0.0, 0.0, 1.0, 29.0, 9.95)">
      <path d="M-27.5 -8.45 Q-11.65 17.15 20.75 4.1" fill="none" stroke="#000000" stroke-linecap="round" stroke-linejoin="round" stroke-width="3.0"/>
    </g>
    <g id="sprite5" transform="matrix(1.0, 0.0, 0.0, 1.0, 5.1, 22.05)">
      <use height="29.65" transform="matrix(1.0, 0.0, 0.0, 1.0, -5.1, -22.05)" width="14.95" xlink:href="#shape5"/>
    </g>
    <g id="shape5" transform="matrix(1.0, 0.0, 0.0, 1.0, 5.1, 22.05)">
      <path d="M2.45 -5.4 Q3.45 -3.15 3.45 0.0 3.45 3.15 2.45 5.35 1.45 7.6 0.0 7.6 -1.45 7.6 -2.45 5.35 -3.45 3.15 -3.45 0.0 -3.45 -3.15 -2.45 -5.4 -1.45 -7.6 0.0 -7.6 1.45 -7.6 2.45 -5.4 M9.65 -14.85 Q9.95 -14.3 9.75 -13.7 L8.95 -12.85 7.85 -12.75 Q7.25 -13.0 6.95 -13.55 3.3 -21.05 -3.5 -19.65 -5.1 -19.3 -5.1 -20.15 -5.1 -21.0 -3.75 -21.45 5.05 -24.2 9.65 -14.85" fill="#000000" fill-rule="evenodd" stroke="none"/>
    </g>
    <g id="sprite6" transform="matrix(1.0, 0.0, 0.0, 1.0, 0.9, -0.1)">
      <use height="32.05" transform="matrix(1.0, 0.0, 0.0, 1.0, -0.9, 0.1)" width="18.9" xlink:href="#shape6"/>
    </g>
    <g id="shape6" transform="matrix(1.0, 0.0, 0.0, 1.0, 0.9, -0.1)">
      <path d="M3.1 25.6 Q6.75 24.05 10.6 24.75 16.75 25.95 18.0 32.15 L-0.9 32.1 0.0 0.1 2.0 0.1 3.1 25.6" fill="#000000" fill-rule="evenodd" stroke="none"/>
    </g>
    <g id="sprite7" transform="matrix(1.0, 0.0, 0.0, 1.0, 29.5, 126.05)">
      <use height="247.9" transform="matrix(1.0, 0.0, 0.0, 1.0, -29.5, -126.05)" width="59.0" xlink:href="#shape7"/>
    </g>
    <g id="shape7" transform="matrix(1.0, 0.0, 0.0, 1.0, 29.5, 126.05)">
      <path d="M-19.65 -73.35 L-15.55 -71.6 -15.55 118.1 6.2 118.1 16.95 118.1 16.95 -72.0 21.0 -74.6 21.0 -74.45 Q20.7 -74.25 20.85 -74.05 L20.75 121.7 -19.3 121.85 -19.65 -73.35" fill="#c4842d" fill-rule="evenodd" stroke="none"/>
      <path d="M-15.55 -71.6 Q-8.7 -69.15 -0.15 -68.75 L-0.1 -68.75 6.2 -68.95 6.2 118.1 -15.55 118.1 -15.55 -71.6" fill="#f1cb7c" fill-rule="evenodd" stroke="none"/>
      <path d="M12.9 -118.45 Q18.15 -95.45 4.95 -83.3 1.95 -80.5 -2.05 -78.3 -6.45 -75.9 -11.95 -74.15 L-14.35 -74.9 -15.55 -75.4 Q-17.45 -76.2 -19.2 -77.15 L-20.6 -78.1 Q-26.55 -82.75 -25.9 -94.5 -25.15 -108.1 -18.0 -115.4 L-17.95 -115.4 Q-10.8 -122.55 -0.65 -122.55 6.0 -122.55 11.45 -119.4 L12.9 -118.45" fill="#dc3a3a" fill-rule="evenodd" stroke="none"/>
      <path d="M12.9 -118.45 L11.45 -119.4 Q6.0 -122.55 -0.65 -122.55 -10.8 -122.55 -17.95 -115.4 L-18.0 -115.4 Q-25.15 -108.1 -25.9 -94.5 -26.55 -82.75 -20.6 -78.1 L-19.2 -77.15 Q-17.45 -76.2 -15.55 -75.4 L-14.35 -74.9 -11.95 -74.15 Q-6.45 -75.9 -2.05 -78.3 1.95 -80.5 4.95 -83.3 18.15 -95.45 12.9 -118.45 M-19.65 -73.35 L-20.9 -74.05 Q-30.3 -79.0 -29.45 -94.65 -28.6 -109.8 -20.45 -117.85 L-20.45 -117.9 Q-12.25 -126.1 -0.65 -126.05 7.0 -126.05 13.2 -122.45 16.3 -120.65 21.75 -115.7 27.15 -110.7 29.2 -96.2 31.15 -82.35 21.05 -74.5 L21.0 -74.6 16.95 -72.0 Q11.95 -69.65 6.2 -68.95 L-0.1 -68.75 -0.15 -68.75 Q-8.7 -69.15 -15.55 -71.6 L-19.65 -73.35" fill="#c62222" fill-rule="evenodd" stroke="none"/>
      <path d="M6.2 -68.95 Q11.95 -69.65 16.95 -72.0 L16.95 118.1 6.2 118.1 6.2 -68.95" fill="#e2b767" fill-rule="evenodd" stroke="none"/>
    </g>
    <g id="sprite8" transform="matrix(1.0, 0.0, 0.0, 1.0, 6.0, 0.0)">
      <use height="37.0" transform="matrix(1.0, 0.0, 0.0, 1.0, -6.0, 0.0)" width="12.0" xlink:href="#shape8"/>
    </g>
    <g id="shape8" transform="matrix(1.0, 0.0, 0.0, 1.0, 6.0, 0.0)">
      <path d="M4.25 26.75 Q6.0 28.5 6.0 31.0 6.0 33.5 4.25 35.25 2.5 37.0 0.0 37.0 -2.5 37.0 -4.25 35.25 -6.0 33.5 -6.0 31.0 -6.0 28.5 -4.25 26.75 -3.2 25.7 -1.85 25.3 L-1.0 0.0 1.0 0.0 1.85 25.25 Q3.2 25.7 4.25 26.75" fill="#000000" fill-rule="evenodd" stroke="none"/>
    </g>
    <g id="sprite9" transform="matrix(1.0, 0.0, 0.0, 1.0, 24.55, 117.25)">
      <use height="251.7" transform="matrix(1.0, 0.0, 0.0, 1.0, -24.55, -117.25)" width="48.5" xlink:href="#shape9"/>
    </g>
    <g id="shape9" transform="matrix(1.0, 0.0, 0.0, 1.0, 24.55, 117.25)">
      <path d="M7.25 90.95 L7.15 91.05 -8.75 91.05 -8.75 -57.95 7.25 -57.95 7.25 90.95" fill="#ffa909" fill-rule="evenodd" stroke="none"/>
      <path d="M17.0 95.05 L17.3 95.05 17.25 95.2 17.0 95.05 M7.15 95.05 L7.25 95.2 4.55 118.05 -5.15 118.05 -17.4 95.05 7.15 95.05" fill="#f3d08f" fill-rule="evenodd" stroke="none"/>
      <path d="M8.35 119.0 L-0.55 134.45 -9.4 118.05 -5.15 118.05 4.55 118.05 8.85 118.05 8.35 119.0" fill="#333333" fill-rule="evenodd" stroke="none"/>
      <path d="M18.65 -57.95 L21.95 -57.95 21.95 95.05 17.3 95.05 17.0 95.05 7.15 95.05 7.15 91.05 7.15 95.05 -17.4 95.05 -21.9 95.1 -22.55 -57.95 -18.3 -57.95 -18.3 91.05 -8.75 91.05 7.15 91.05 18.15 91.05 18.65 -57.95 M8.9 118.05 L8.35 119.0 8.85 118.05 8.9 118.05" fill="#b97800" fill-rule="evenodd" stroke="none"/>
      <path d="M21.95 95.05 L8.9 118.05 8.85 118.05 4.55 118.05 17.25 95.2 17.3 95.05 21.95 95.05 M-9.4 118.05 L-21.9 95.1 -17.4 95.05 -5.15 118.05 -9.4 118.05" fill="#bd8a2b" fill-rule="evenodd" stroke="none"/>
      <path d="M-18.35 -90.6 L-18.35 -107.35 -17.95 -109.35 Q-16.45 -113.85 -10.45 -113.85 L7.25 -113.85 7.25 -90.6 -11.15 -90.6 -18.35 -90.6" fill="#e47e93" fill-rule="evenodd" stroke="none"/>
      <path d="M7.25 -57.95 L18.65 -57.95 18.15 91.05 7.15 91.05 7.25 90.95 7.25 -57.95" fill="#e89700" fill-rule="evenodd" stroke="none"/>
      <path d="M7.25 -113.85 L11.0 -113.85 Q18.05 -113.85 18.05 -105.85 L18.05 -90.6 7.25 -90.6 7.25 -113.85" fill="#e17389" fill-rule="evenodd" stroke="none"/>
      <path d="M7.15 95.05 L17.0 95.05 17.25 95.2 4.55 118.05 7.25 95.2 7.15 95.05" fill="#f0c575" fill-rule="evenodd" stroke="none"/>
      <path d="M18.05 -90.6 L18.05 -105.85 Q18.05 -113.85 11.0 -113.85 L7.25 -113.85 -10.45 -113.85 Q-16.45 -113.85 -17.95 -109.35 L-18.35 -107.35 -18.35 -90.6 -22.5 -90.6 -22.55 -90.6 -22.3 -108.25 Q-21.75 -112.7 -18.25 -115.15 -15.75 -117.0 -11.65 -117.25 L11.6 -117.25 Q21.55 -117.25 22.0 -106.4 L21.95 -90.6 18.05 -90.6" fill="#cc536b" fill-rule="evenodd" stroke="none"/>
      <path d="M18.05 -90.6 L21.95 -90.6 21.95 -57.95 18.65 -57.95 7.25 -57.95 -8.75 -57.95 -11.15 -57.95 -11.15 -90.6 7.25 -90.6 18.05 -90.6" fill="#b5b5b5" fill-rule="evenodd" stroke="none"/>
      <path d="M-8.75 91.05 L-18.3 91.05 -18.3 -57.95 -11.15 -57.95 -8.75 -57.95 -8.75 91.05" fill="#ffbf48" fill-rule="evenodd" stroke="none"/>
      <path d="M-22.5 -90.6 L-18.35 -90.6 -11.15 -90.6 -11.15 -57.95 -18.3 -57.95 -22.55 -57.95 -22.5 -90.6" fill="#c3c3c3" fill-rule="evenodd" stroke="none"/>
      <path d="M18.05 -90.6 L21.95 -90.6 M-22.55 -90.6 L-22.5 -90.6 -18.35 -90.6 M7.25 -90.6 L18.05 -90.6 M21.95 -57.95 L21.95 -90.6 M18.65 -57.95 L21.95 -57.95 M-22.55 -57.95 L-22.5 -90.6 M7.25 -57.95 L18.65 -57.95 M-18.3 -57.95 L-22.55 -57.95 M7.25 -57.95 L-8.75 -57.95 M-18.3 -57.95 L-11.15 -57.95 -8.75 -57.95 M-11.15 -90.6 L-18.35 -90.6 M7.25 -90.6 L-11.15 -90.6" fill="none" stroke="#666666" stroke-linecap="round" stroke-linejoin="miter" stroke-miterlimit="5.0" stroke-width="4.0"/>
    </g>
    <g id="sprite10" transform="matrix(1.0, 0.0, 0.0, 1.0, 30.45, 8.8)">
      <use height="26.55" transform="matrix(1.0, 0.0, 0.0, 1.0, -30.45, -8.8)" width="58.4" xlink:href="#shape10"/>
    </g>
    <g id="shape10" transform="matrix(1.0, 0.0, 0.0, 1.0, 30.45, 8.8)">
      <path d="M-3.2 -1.05 Q7.5 -0.45 20.1 -2.3 18.65 0.1 18.2 3.0 -4.35 6.05 -26.85 2.95 -28.05 -0.75 -26.8 -5.15 -14.0 -1.7 -3.25 -1.05 L-3.2 -1.05 M-25.15 6.4 L-25.95 5.15 Q-4.0 8.0 17.95 5.05 L17.95 7.6 Q11.6 12.5 2.85 14.15 -5.7 15.6 -13.75 13.55 -21.55 11.55 -25.15 6.4" fill="#ffffff" fill-rule="evenodd" stroke="none"/>
      <path d="M-28.75 -8.8 L-27.4 -8.45 Q-14.15 -4.75 -3.05 -4.05 10.95 -3.4 27.95 -6.65 21.75 -1.25 21.05 4.0 20.8 6.15 21.0 8.1 L21.1 8.95 20.45 9.4 Q13.35 15.2 3.4 17.1 L3.35 17.1 Q-5.8 18.7 -14.5 16.45 -23.45 14.15 -27.6 8.1 L-27.6 8.15 -28.8 6.2 -28.75 6.2 -29.6 4.25 -29.55 4.3 Q-31.5 -1.0 -29.2 -7.5 L-28.75 -8.8 M-25.15 6.4 Q-21.55 11.55 -13.75 13.55 -5.7 15.6 2.85 14.15 11.6 12.5 17.95 7.6 L17.95 5.05 Q-4.0 8.0 -25.95 5.15 L-25.15 6.4 M-3.2 -1.05 L-3.25 -1.05 Q-14.0 -1.7 -26.8 -5.15 -28.05 -0.75 -26.85 2.95 -4.35 6.05 18.2 3.0 18.65 0.1 20.1 -2.3 7.5 -0.45 -3.2 -1.05" fill="#000000" fill-rule="evenodd" stroke="none"/>
    </g>
    <g id="sprite11" transform="matrix(1.0, 0.0, 0.0, 1.0, 5.5, 17.45)">
      <use height="23.35" transform="matrix(1.0, 0.0, 0.0, 1.0, -5.5, -17.45)" width="10.5" xlink:href="#shape11"/>
    </g>
    <g id="shape11" transform="matrix(1.0, 0.0, 0.0, 1.0, 5.5, 17.45)">
      <path d="M-0.3 -12.3 Q-2.8 -12.35 -3.7 -1.7 L-4.2 4.35 Q-4.5 6.35 -5.05 4.45 -5.95 1.2 -4.95 -7.35 -3.75 -17.45 -0.25 -17.45 3.3 -17.45 4.5 -7.6 5.55 1.1 4.45 4.6 3.65 6.9 3.45 5.1 L3.2 -1.15 Q2.7 -12.3 -0.3 -12.3" fill="#000000" fill-rule="evenodd" stroke="none"/>
    </g>
    <g id="sprite12" transform="matrix(1.0, 0.0, 0.0, 1.0, 0.9, -0.1)">
      <use height="32.05" transform="matrix(1.0, 0.0, 0.0, 1.0, -0.9, 0.1)" width="18.4" xlink:href="#shape12"/>
    </g>
    <g id="shape12" transform="matrix(1.0, 0.0, 0.0, 1.0, 0.9, -0.1)">
      <path d="M5.95 24.1 Q7.0 21.2 10.4 19.95 14.35 18.5 17.5 22.0 L9.05 32.1 9.05 32.15 -0.9 32.1 0.0 0.1 2.0 0.1 3.05 24.4 Q3.3 23.9 4.3 23.8 5.35 23.7 5.95 24.1" fill="#000000" fill-rule="evenodd" stroke="none"/>
    </g>
    <g id="sprite13" transform="matrix(1.0, 0.0, 0.0, 1.0, 80.3, 89.05)">
      <use height="178.1" transform="matrix(1.0, 0.0, 0.0, 1.0, -80.3, -89.05)" width="160.65" xlink:href="#shape13"/>
    </g>
    <g id="shape13" transform="matrix(1.0, 0.0, 0.0, 1.0, 80.3, 89.05)">
      <path d="M69.7 78.5 L69.7 -78.5 15.55 -78.5 -60.55 -78.5 -65.65 -79.25 -57.35 -83.55 17.15 -83.5 74.45 -83.45 74.45 72.1 72.4 74.95 69.7 78.5" fill="#ffffff" fill-rule="evenodd" stroke="none"/>
      <path d="M-65.65 -79.25 L-70.6 -78.5 -58.85 -85.05 Q-54.1 -82.6 -47.8 -85.05 L17.65 -85.05 17.15 -83.5 -57.35 -83.55 -65.65 -79.25 M-60.55 -74.5 L14.25 -74.5 Q17.4 -30.0 -9.1 -2.15 -37.3 37.45 -37.3 85.05 L-60.55 85.05 -60.55 -74.5" fill="#24b814" fill-rule="evenodd" stroke="none"/>
      <path d="M-70.55 83.4 L-70.55 -75.9 Q-65.65 -76.35 -60.55 -74.5 L-60.55 85.05 Q-66.85 83.1 -70.55 83.4" fill="#2de418" fill-rule="evenodd" stroke="none"/>
      <path d="M-70.55 83.4 Q-73.4 83.55 -76.3 85.05 L-76.3 -74.5 Q-73.45 -75.6 -70.55 -75.9 L-70.55 83.4" fill="#1e9a10" fill-rule="evenodd" stroke="none"/>
      <path d="M14.25 -74.5 L65.7 -74.5 65.7 85.05 -37.3 85.05 Q-37.3 37.45 -9.1 -2.15 17.4 -30.0 14.25 -74.5 M17.15 -83.5 L17.65 -85.05 76.35 -85.05 76.35 74.5 72.7 74.5 72.4 74.95 74.45 72.1 74.45 -83.45 17.15 -83.5" fill="#139cb9" fill-rule="evenodd" stroke="none"/>
      <path d="M15.55 -78.5 L14.25 -74.5 -60.55 -74.5 Q-65.65 -76.35 -70.55 -75.9 -73.45 -75.6 -76.3 -74.5 L-76.3 85.05 Q-73.4 83.55 -70.55 83.4 -66.85 83.1 -60.55 85.05 L-37.3 85.05 -38.6 89.05 -61.0 89.05 Q-64.4 86.6 -69.5 86.55 -74.65 86.5 -80.3 89.05 L-80.3 -77.1 -59.9 -89.05 Q-54.15 -84.85 -47.8 -89.05 L18.95 -89.05 17.65 -85.05 -47.8 -85.05 Q-54.1 -82.6 -58.85 -85.05 L-70.6 -78.5 -65.65 -79.25 -60.55 -78.5 15.55 -78.5" fill="#11580a" fill-rule="evenodd" stroke="none"/>
      <path d="M14.25 -74.5 L15.55 -78.5 69.7 -78.5 69.7 78.5 69.7 89.05 -38.6 89.05 -37.3 85.05 65.7 85.05 65.7 -74.5 14.25 -74.5 M17.65 -85.05 L18.95 -89.05 80.35 -89.05 80.35 78.5 69.95 78.5 69.7 78.5 72.4 74.95 72.7 74.5 76.35 74.5 76.35 -85.05 17.65 -85.05" fill="#094e59" fill-rule="evenodd" stroke="none"/>
    </g>
    <g id="sprite14" transform="matrix(1.0, 0.0, 0.0, 1.0, 31.85, 8.75)">
      <use height="30.15" transform="matrix(1.0, 0.0, 0.0, 1.0, -31.85, -8.75)" width="57.0" xlink:href="#shape14"/>
    </g>
    <g id="shape14" transform="matrix(1.0, 0.0, 0.0, 1.0, 31.85, 8.75)">
      <path d="M20.55 10.4 L19.95 10.7 Q13.95 15.5 2.1 17.75 L-9.75 18.3 -10.15 18.25 Q-12.7 4.15 -26.7 8.6 L-26.95 8.25 Q-30.5 2.85 -26.95 -5.2 -14.1 -1.7 -3.25 -1.05 L-3.2 -1.05 Q8.4 -0.4 22.25 -2.65 20.9 -0.5 20.4 2.7 19.75 6.55 20.55 10.4" fill="#8c0003" fill-rule="evenodd" stroke="none"/>
      <path d="M-10.15 18.25 Q-21.05 16.6 -26.7 8.6 -12.7 4.15 -10.15 18.25" fill="#f47171" fill-rule="evenodd" stroke="none"/>
      <path d="M20.55 10.4 Q22.55 11.2 17.75 14.5 12.45 18.1 4.3 20.05 -3.2 21.8 -10.15 21.25 -22.5 20.25 -29.45 9.95 -34.35 2.95 -29.15 -7.65 L-28.6 -8.75 -27.4 -8.45 Q-14.15 -4.75 -3.05 -4.05 8.95 -3.35 23.4 -5.85 24.0 -6.0 24.5 -5.6 L25.15 -4.65 Q25.25 -4.05 24.9 -3.55 L23.9 -2.9 22.25 -2.65 Q8.4 -0.4 -3.2 -1.05 L-3.25 -1.05 Q-14.1 -1.7 -26.95 -5.2 -30.5 2.85 -26.95 8.25 L-26.7 8.6 Q-21.05 16.6 -10.15 18.25 L-9.75 18.3 2.1 17.75 Q13.95 15.5 19.95 10.7 L20.55 10.4" fill="#000000" fill-rule="evenodd" stroke="none"/>
    </g>
    <g id="sprite15" transform="matrix(1.0, 0.0, 0.0, 1.0, 71.5, 73.0)">
      <use height="147.5" transform="matrix(1.0, 0.0, 0.0, 1.0, -71.5, -73.0)" width="143.0" xlink:href="#shape15"/>
    </g>
    <g id="shape15" transform="matrix(1.0, 0.0, 0.0, 1.0, 71.5, 73.0)">
      <path d="M64.1 -63.9 Q68.55 -58.6 69.55 -45.0 70.0 -38.55 70.0 -7.65 70.05 27.55 69.1 34.05 68.25 39.85 66.1 43.95 64.15 47.6 59.75 52.3 L48.95 63.7 Q44.25 68.1 39.1 69.95 33.55 71.85 23.15 72.5 14.65 73.0 -6.0 73.0 -41.25 73.0 -44.7 72.8 -58.55 71.95 -63.5 67.2 -68.55 62.4 -69.55 48.75 -70.0 42.95 -70.0 10.0 L-69.95 -23.55 Q-69.7 -35.95 -68.05 -41.55 -66.3 -47.35 -61.45 -51.6 -58.7 -54.0 -47.5 -61.25 -37.2 -67.9 -28.75 -69.45 -17.95 -71.5 13.75 -71.5 40.05 -71.5 47.55 -70.65 59.55 -69.25 64.1 -63.9" fill="url(#gradient1)" fill-rule="evenodd" stroke="none"/>
      <path d="M64.1 -63.9 Q68.55 -58.6 69.55 -45.0 70.0 -38.55 70.0 -7.65 70.05 27.55 69.1 34.05 68.25 39.85 66.1 43.95 64.15 47.6 59.75 52.3 L48.95 63.7 Q44.25 68.1 39.1 69.95 33.55 71.85 23.15 72.5 14.65 73.0 -6.0 73.0 -41.25 73.0 -44.7 72.8 -58.55 71.95 -63.5 67.2 -68.55 62.4 -69.55 48.75 -70.0 42.95 -70.0 10.0 L-69.95 -23.55 Q-69.7 -35.95 -68.05 -41.55 -66.3 -47.35 -61.45 -51.6 -58.7 -54.0 -47.5 -61.25 -37.2 -67.9 -28.75 -69.45 -17.95 -71.5 13.75 -71.5 40.05 -71.5 47.55 -70.65 59.55 -69.25 64.1 -63.9 Z" fill="none" stroke="#8ca9dd" stroke-linecap="round" stroke-linejoin="round" stroke-width="3.0"/>
      <path d="M55.15 -60.25 Q42.45 -49.35 30.4 -45.75 21.9 -43.2 -6.9 -43.3 -36.15 -43.4 -54.15 -46.25 -52.2 -49.05 -46.55 -50.2 -40.25 -51.45 -31.9 -49.85 0.0 -43.8 19.25 -47.75 29.95 -50.0 38.75 -56.65 44.6 -61.1 50.45 -61.1 53.4 -61.1 55.15 -60.25 M-16.5 -66.4 Q0.75 -67.25 28.6 -67.0 15.3 -62.65 -10.15 -62.0 -14.75 -61.9 -24.9 -59.95 -33.7 -58.3 -41.5 -58.75 -37.45 -61.5 -30.35 -63.75 -22.85 -66.1 -16.5 -66.4" fill="#ffffff" fill-rule="evenodd" stroke="none"/>
      <path d="M60.65 -58.0 Q66.05 -48.8 68.0 -26.05 69.85 -3.3 67.15 19.7 64.45 42.7 58.75 52.4 52.95 62.15 47.55 53.0 42.15 43.75 40.25 21.0 38.35 -1.75 41.05 -24.7 43.75 -47.75 49.5 -57.55 55.25 -67.25 60.65 -58.0" fill="url(#gradient2)" fill-rule="evenodd" stroke="none"/>
    </g>
    <radialGradient cx="0" cy="0" fx="662.4000000000001" fy="0" gradientTransform="matrix(0.0559, 0.0775, -0.0775, 0.0559, 3.25, -0.25)" gradientUnits="userSpaceOnUse" id="gradient1" r="819.2" spreadMethod="pad">
      <stop offset="0.0" stop-color="#ffffff" stop-opacity="0.8"/>
      <stop offset="1.0" stop-color="#ccd7ff" stop-opacity="0.8"/>
    </radialGradient>
    <radialGradient cx="0" cy="0" fx="-1404.8000000000002" fy="0" gradientTransform="matrix(0.0163, 0.0277, -0.0082, 0.0692, 54.15, -2.5)" gradientUnits="userSpaceOnUse" id="gradient2" r="819.2" spreadMethod="pad">
      <stop offset="0.0" stop-color="#ffffff" stop-opacity="0.2"/>
      <stop offset="1.0" stop-color="#ffffff" stop-opacity="0.0"/>
    </radialGradient>
    <g id="sprite16" transform="matrix(1.0, 0.0, 0.0, 1.0, 28.25, 3.1)">
      <use height="6.65" transform="matrix(1.0, 0.0, 0.0, 1.0, -28.25, -3.1)" width="54.9" xlink:href="#shape16"/>
    </g>
    <g id="shape16" transform="matrix(1.0, 0.0, 0.0, 1.0, 28.25, 3.1)">
      <path d="M-26.75 2.05 Q-2.6 -1.15 25.15 -1.6" fill="none" stroke="#000000" stroke-linecap="round" stroke-linejoin="round" stroke-width="3.0"/>
    </g>
    <g id="sprite17" transform="matrix(1.0, 0.0, 0.0, 1.0, 101.65, 50.6)">
      <use height="117.95" transform="matrix(1.0, 0.0, 0.0, 1.0, -101.65, -50.6)" width="203.25" xlink:href="#shape17"/>
    </g>
    <g id="shape17" transform="matrix(1.0, 0.0, 0.0, 1.0, 101.65, 50.6)">
      <path d="M0.5 65.4 L-99.2 -17.55 -90.15 -17.55 -43.85 24.85 0.5 65.4 -11.2 40.7 -0.25 -17.55 10.2 44.0 0.5 65.4 M-63.8 -42.3 L-54.05 -49.1 -35.55 -49.1 -63.8 -42.3" fill="#e00518" fill-rule="evenodd" stroke="none"/>
      <path d="M38.0 -17.65 L27.9 -41.7 69.0 -17.65 38.0 -17.65 10.2 44.0 -0.25 -17.55 38.0 -17.65 M69.0 -17.65 L67.85 -39.4 89.9 -17.7 69.0 -17.65 M-99.2 -17.55 L-63.8 -42.3 -70.45 -17.55 -70.5 -17.55 -90.15 -17.55 -99.2 -17.55 M-70.45 -17.5 L-70.4 -17.55 -38.85 -17.6 -11.2 40.7 -70.45 -17.5" fill="#a30518" fill-rule="evenodd" stroke="none"/>
      <path d="M10.2 44.0 L69.0 -17.65 39.15 29.5 89.9 -17.7 99.15 -17.7 0.5 65.4 -43.85 24.85 -70.45 -17.5 -70.45 -17.55 -70.5 -17.55 -70.45 -17.55 -63.8 -42.3 -35.55 -49.1 -26.9 -41.75 -0.25 -17.55 -38.85 -17.6 -26.9 -41.75 -70.4 -17.55 -70.45 -17.5 0.5 65.4 10.2 44.0 M36.7 -49.1 L27.9 -41.7 0.55 -49.1 36.7 -49.1" fill="#ff4255" fill-rule="evenodd" stroke="none"/>
      <path d="M0.55 -49.1 L-26.9 -41.75 -35.55 -49.1 0.55 -49.1 M-70.4 -17.55 L-26.9 -41.75 -38.85 -17.6 -70.4 -17.55" fill="#ff7f92" fill-rule="evenodd" stroke="none"/>
      <path d="M0.55 -49.1 L27.9 -41.7 -0.25 -17.55 -26.9 -41.75 0.55 -49.1 M69.0 -17.65 L89.9 -17.7 39.15 29.5 69.0 -17.65" fill="#ff2336" fill-rule="evenodd" stroke="none"/>
      <path d="M38.0 -17.65 L69.0 -17.65 27.9 -41.7 38.0 -17.65 -0.25 -17.55 27.9 -41.7 36.7 -49.1 67.85 -39.4 69.0 -17.65 10.2 44.0 38.0 -17.65 M-70.5 -17.55 L-70.45 -17.55 -70.45 -17.5 -43.85 24.85 -90.15 -17.55 -70.5 -17.55 M0.5 65.4 L-70.45 -17.5 -11.2 40.7 -38.85 -17.6 -0.25 -17.55 -11.2 40.7 0.5 65.4" fill="#c20518" fill-rule="evenodd" stroke="none"/>
      <path d="M67.85 -39.4 L36.7 -49.1 54.15 -49.1 99.15 -17.7 89.9 -17.7 67.85 -39.4" fill="#d98ead" fill-rule="evenodd" stroke="none"/>
      <path d="M36.7 -49.1 L0.55 -49.1 -35.55 -49.1 M36.7 -49.1 L54.15 -49.1 99.15 -17.7 0.5 65.4 -99.2 -17.55 -63.8 -42.3 -54.05 -49.1 -35.55 -49.1" fill="none" stroke="#660014" stroke-linecap="round" stroke-linejoin="miter" stroke-miterlimit="12.0" stroke-width="3.0"/>
    </g>
    <g id="sprite18" transform="matrix(1.0, 0.0, 0.0, 1.0, 6.55, 7.75)">
      <use height="13.75" transform="matrix(1.0, 0.0, 0.0, 1.0, -6.55, -7.75)" width="12.15" xlink:href="#shape18"/>
    </g>
    <g id="shape18" transform="matrix(1.0, 0.0, 0.0, 1.0, 6.55, 7.75)">
      <path d="M-5.55 -5.55 Q-4.55 -7.75 -3.1 -7.75 -1.65 -7.75 -0.65 -5.55 0.35 -3.3 0.35 -0.15 0.35 2.75 -0.5 4.85 L-5.7 4.85 Q-6.55 2.75 -6.55 -0.15 -6.55 -3.3 -5.55 -5.55" fill="#000000" fill-rule="evenodd" stroke="none"/>
      <path d="M4.95 4.65 L5.4 4.9 5.6 5.4 5.4 5.8 4.95 6.0 -2.75 6.0 -4.75 5.6 Q-5.8 5.1 -5.8 4.5 -5.8 3.85 -4.75 3.6 L-2.75 3.5 4.95 4.65" fill="#000000" fill-rule="evenodd" stroke="none"/>
    </g>
  </defs>
</svg>
