<svg id="Layer_1" data-name="Layer 1" xmlns="http://www.w3.org/2000/svg" viewBox="0 0 64 64"><defs><style>.cls-1{fill:#ccc;}</style></defs><rect class="cls-1" x="2" y="2" width="60" height="60"/><path d="M60,4V60H4V4H60m4-4H0V64H64V0Z"/><path d="M38.67,19.3c0-3.86-2.32-7-6.94-7a11,11,0,0,0-8.27,4.12l-3.4-3.1C23.09,10,27.19,7.4,32.4,7.4c7.29,0,12.08,4.42,12.08,11.49,0,9.46-11.61,13.27-10.43,23.33H28.8C27.27,31,38.67,26.91,38.67,19.3ZM27.29,52.89a4.29,4.29,0,1,1,4.29,4.49A4.33,4.33,0,0,1,27.29,52.89Z"/></svg>