<svg id="Layer_1" data-name="Layer 1" xmlns="http://www.w3.org/2000/svg" viewBox="0 0 64 64"><defs><style>.cls-1{fill:#fcee21;}</style></defs><rect class="cls-1" x="2" y="2" width="60" height="60"/><path d="M60,4V60H4V4H60m4-4H0V64H64V0Z"/><path d="M15.27,50l3.62-4.16A18.56,18.56,0,0,0,32,51.68c6.25,0,10-3.1,10-7.72,0-4.86-3.45-6.41-7.94-8.37l-6.83-3c-4.43-1.89-9.63-5.25-9.63-12.24,0-7.27,6.33-12.62,15-12.62a19.62,19.62,0,0,1,14,5.89l-3.2,3.88A15.23,15.23,0,0,0,32.52,13c-5.33,0-8.86,2.69-8.86,7,0,4.58,4.14,6.29,7.87,7.87l6.78,2.93c5.5,2.36,9.79,5.64,9.79,12.71C48.1,51,41.89,57,31.9,57A22.78,22.78,0,0,1,15.27,50Z"/></svg>