<?xml version="1.0" encoding="UTF-8" standalone="no"?>
<svg xmlns:xlink="http://www.w3.org/1999/xlink" height="260.0px" width="451.25px" xmlns="http://www.w3.org/2000/svg">
  <g transform="matrix(1.0, 0.0, 0.0, 1.0, -32.85, -267.15)">
    <path d="M404.8 332.05 Q428.5 332.05 443.7 341.0 459.2 349.9 467.75 363.9 476.7 377.9 480.6 395.4 484.05 412.5 484.1 428.8 484.1 446.3 479.05 463.8 474.35 481.25 464.65 495.65 454.95 509.65 440.55 518.6 425.8 527.15 406.0 527.15 393.15 527.15 384.2 524.8 375.25 522.45 369.05 519.0 363.2 515.45 358.95 510.8 355.05 506.55 351.6 501.9 L351.2 502.25 351.2 522.5 282.8 522.5 282.8 267.15 353.5 267.15 353.5 357.3 354.3 357.3 Q362.45 345.25 375.65 338.65 388.85 332.0 404.8 332.05 M366.35 388.0 Q360.5 391.9 357.0 398.5 353.5 404.7 352.35 412.9 351.2 421.05 351.2 429.6 351.2 437.75 352.35 445.9 353.5 454.05 357.0 460.7 360.5 467.3 366.35 471.55 372.55 475.85 381.9 475.85 391.6 475.85 397.45 471.55 403.65 467.3 407.15 460.7 410.65 454.05 411.8 445.9 412.95 437.75 413.0 429.6 412.95 421.05 411.8 412.9 410.65 404.7 407.15 398.5 403.65 391.9 397.45 388.0 391.6 383.75 381.9 383.75 372.55 383.75 366.35 388.0 M115.85 364.6 Q127.4 355.7 141.9 352.5 156.25 349.4 170.25 349.4 186.7 349.4 201.55 354.6 216.45 359.65 227.65 370.35 238.65 380.8 245.2 397.45 251.65 414.0 251.65 436.6 251.65 456.2 244.3 472.85 236.9 489.45 222.75 501.5 208.55 513.4 187.75 520.3 166.75 527.15 139.8 527.15 116.9 527.15 99.95 522.65 82.9 518.3 70.9 511.1 58.8 503.9 51.15 494.85 43.4 485.8 39.4 476.25 35.15 466.9 33.8 458.25 32.35 449.55 33.1 443.25 L103.6 443.25 Q105.65 453.9 113.6 460.2 119.0 464.7 126.35 466.7 133.7 468.65 141.9 468.65 157.65 468.65 168.85 459.3 179.9 449.9 179.9 434.4 179.9 417.2 170.1 407.9 160.3 398.5 144.2 398.5 131.6 398.5 122.7 402.5 113.7 406.25 108.0 415.05 L41.5 415.05 67.25 267.15 238.55 267.15 238.55 329.9 122.35 329.9 115.15 363.85 115.85 364.6" fill="#ffffff" fill-rule="evenodd" stroke="none"/>
  </g>
</svg>
