<?xml version="1.0" encoding="UTF-8" standalone="no"?>
<svg xmlns:xlink="http://www.w3.org/1999/xlink" height="1516.75px" width="1464.65px" xmlns="http://www.w3.org/2000/svg">
  <g transform="matrix(1.0, 0.0, 0.0, 1.0, 63.9, 305.6)">
    <use height="632.95" transform="matrix(1.0, 0.0, 0.0, 1.0, -14.0, -36.0)" width="1248.8" xlink:href="#sprite0"/>
  </g>
  <defs>
    <g id="sprite0" transform="matrix(1.0, 0.0, 0.0, 1.0, 32.0, 35.0)">
      <use height="580.0" transform="matrix(1.0, 0.0, 0.0, 1.0, -20.0, -20.0)" width="1236.8" xlink:href="#shape0"/>
      <use height="96.0" transform="matrix(1.1477, 0.0, 0.0, 1.1477, 812.9109, 23.0109)" width="96.0" xlink:href="#sprite1"/>
      <use height="401.95" transform="matrix(1.0, 0.0, 0.0, 1.0, 83.85, -35.0)" width="51.3" xlink:href="#sprite2"/>
      <use height="401.95" transform="matrix(1.0, 0.0, 0.0, 1.0, -4.15, -30.0)" width="51.3" xlink:href="#sprite4"/>
      <use height="401.95" transform="matrix(1.0, 0.0, 0.0, 1.0, 254.8, -30.0)" width="51.3" xlink:href="#sprite5"/>
      <use height="73.4" transform="matrix(1.0, 0.0, 0.0, 1.0, 429.8, 122.1)" width="469.45" xlink:href="#sprite6"/>
      <use height="267.9" transform="matrix(1.0, 0.0, 0.0, 1.0, -32.0, 330.05)" width="1031.9" xlink:href="#shape5"/>
      <use height="50.0" transform="matrix(1.0, 0.0, 0.0, 1.0, 545.2, 151.0)" width="14.0" xlink:href="#sprite7"/>
      <use height="50.0" transform="matrix(1.0, 0.0, 0.0, 1.0, 590.45, 181.5)" width="14.0" xlink:href="#sprite7"/>
      <use height="50.0" transform="matrix(1.0, 0.0, 0.0, 1.0, 609.45, 195.5)" width="14.0" xlink:href="#sprite7"/>
      <use height="142.45" transform="matrix(-2.589, -0.1138, -0.1095, 2.4911, 948.1905, 204.4625)" width="322.45" xlink:href="#sprite8"/>
    </g>
    <g id="shape0" transform="matrix(1.0, 0.0, 0.0, 1.0, 20.0, 20.0)">
      <path d="M1067.85 560.0 L-20.0 560.0 -20.0 -20.0 1067.8 -20.0 1067.85 560.0" fill="url(#gradient0)" fill-rule="evenodd" stroke="none"/>
      <path d="M1067.8 -20.0 L1216.8 -20.0 1216.8 560.0 1067.85 560.0 1067.8 -20.0" fill="url(#gradient1)" fill-rule="evenodd" stroke="none"/>
    </g>
    <linearGradient gradientTransform="matrix(0.0, -0.3553, 0.4054, 0.0, 571.05, 270.0)" gradientUnits="userSpaceOnUse" id="gradient0" spreadMethod="pad" x1="-819.2" x2="819.2">
      <stop offset="0.0" stop-color="#bdbdbd"/>
      <stop offset="0.6" stop-color="#858585"/>
      <stop offset="1.0" stop-color="#000000"/>
    </linearGradient>
    <linearGradient gradientTransform="matrix(0.0, -0.3553, 0.6736, 0.0, 234.8, 270.0)" gradientUnits="userSpaceOnUse" id="gradient1" spreadMethod="pad" x1="-819.2" x2="819.2">
      <stop offset="0.0" stop-color="#bdbdbd"/>
      <stop offset="0.6" stop-color="#858585"/>
      <stop offset="1.0" stop-color="#000000"/>
    </linearGradient>
    <g id="sprite1" transform="matrix(1.0, 0.0, 0.0, 1.0, 48.0, 48.0)">
      <use height="96.0" transform="matrix(1.0, 0.0, 0.0, 1.0, -48.0, -48.0)" width="96.0" xlink:href="#shape1"/>
    </g>
    <g id="shape1" transform="matrix(1.0, 0.0, 0.0, 1.0, 48.0, 48.0)">
      <path d="M47.3 -8.7 Q48.0 -4.5 48.0 0.0 48.0 19.9 33.95 33.95 19.9 48.0 0.0 48.0 -19.9 48.0 -33.95 33.95 -48.0 19.9 -48.0 0.0 -48.0 -19.9 -33.95 -33.95 -19.9 -48.0 0.0 -48.0 L10.3 -46.95 Q4.35 -45.7 -0.6 -42.1 L-0.85 -42.35 Q-2.0 -43.5 -3.65 -43.5 -5.3 -43.5 -6.45 -42.35 -7.6 -41.2 -7.6 -39.55 -7.6 -37.9 -6.45 -36.75 L-6.4 -36.7 Q-12.95 -29.15 -13.65 -19.15 -14.8 -19.75 -16.25 -19.75 -17.8 -19.75 -19.1 -19.05 -20.1 -20.0 -21.5 -20.0 -22.95 -20.0 -24.0 -19.0 -25.0 -17.95 -25.0 -16.5 -25.0 -15.05 -24.0 -14.05 -23.1 -13.15 -21.9 -13.0 -21.65 -11.25 -20.35 -9.95 -18.65 -8.25 -16.25 -8.25 -14.35 -8.25 -12.9 -9.3 -11.0 -1.1 -4.65 5.25 L-2.65 7.1 -2.75 7.1 Q-4.25 7.1 -5.35 8.15 -6.4 9.25 -6.4 10.75 -6.4 12.25 -5.35 13.3 -4.25 14.4 -2.75 14.4 -1.25 14.4 -0.2 13.3 0.9 12.25 0.9 10.75 L0.75 9.6 Q8.0 14.3 17.25 14.3 24.65 14.3 30.8 11.3 L31.45 12.1 Q32.65 13.3 34.35 13.3 36.05 13.3 37.25 12.1 38.45 10.9 38.45 9.2 38.45 7.75 37.6 6.7 L39.2 5.25 Q45.3 -0.9 47.3 -8.7 M-18.5 10.25 Q-18.5 9.75 -18.9 9.35 -19.25 9.0 -19.75 9.0 -20.25 9.0 -20.65 9.35 L-21.0 10.25 -20.65 11.1 Q-20.25 11.5 -19.75 11.5 -19.25 11.5 -18.9 11.1 -18.5 10.75 -18.5 10.25 M-23.75 -3.0 Q-23.0 -3.7 -23.0 -4.75 -23.0 -5.8 -23.75 -6.55 -24.45 -7.25 -25.5 -7.25 -26.55 -7.25 -27.3 -6.55 -28.0 -5.8 -28.0 -4.75 -28.0 -3.7 -27.3 -3.0 -26.55 -2.25 -25.5 -2.25 -24.45 -2.25 -23.75 -3.0 M-18.9 -35.4 Q-19.6 -34.7 -19.6 -33.75 -19.6 -32.8 -18.9 -32.1 -18.2 -31.4 -17.25 -31.4 -16.3 -31.4 -15.6 -32.1 -14.9 -32.8 -14.9 -33.75 -14.9 -34.7 -15.6 -35.4 -16.3 -36.1 -17.25 -36.1 -18.2 -36.1 -18.9 -35.4 M2.5 30.0 Q4.25 28.25 4.25 25.75 4.25 23.25 2.5 21.5 0.75 19.75 -1.75 19.75 -4.25 19.75 -6.0 21.5 -7.75 23.25 -7.75 25.75 -7.75 28.25 -6.0 30.0 -4.25 31.75 -1.75 31.75 0.75 31.75 2.5 30.0 M16.05 23.0 Q15.45 23.65 15.45 24.5 15.45 25.35 16.05 25.95 16.7 26.6 17.55 26.6 18.4 26.6 19.0 25.95 19.65 25.35 19.65 24.5 19.65 23.65 19.0 23.0 18.4 22.4 17.55 22.4 16.7 22.4 16.05 23.0" fill="#8e8e8e" fill-rule="evenodd" stroke="none"/>
      <path d="M10.3 -46.95 Q23.7 -44.2 33.95 -33.95 44.8 -23.1 47.3 -8.7 45.3 -0.9 39.2 5.25 L37.6 6.7 Q38.45 7.75 38.45 9.2 38.45 10.9 37.25 12.1 36.05 13.3 34.35 13.3 32.65 13.3 31.45 12.1 L30.8 11.3 Q24.65 14.3 17.25 14.3 8.0 14.3 0.75 9.6 L0.9 10.75 Q0.9 12.25 -0.2 13.3 -1.25 14.4 -2.75 14.4 -4.25 14.4 -5.35 13.3 -6.4 12.25 -6.4 10.75 -6.4 9.25 -5.35 8.15 -4.25 7.1 -2.75 7.1 L-2.65 7.1 -4.65 5.25 Q-11.0 -1.1 -12.9 -9.3 -14.35 -8.25 -16.25 -8.25 -18.65 -8.25 -20.35 -9.95 -21.65 -11.25 -21.9 -13.0 -23.1 -13.15 -24.0 -14.05 -25.0 -15.05 -25.0 -16.5 -25.0 -17.95 -24.0 -19.0 -22.95 -20.0 -21.5 -20.0 -20.1 -20.0 -19.1 -19.05 -17.8 -19.75 -16.25 -19.75 -14.8 -19.75 -13.65 -19.15 -12.95 -29.15 -6.4 -36.7 L-6.45 -36.75 Q-7.6 -37.9 -7.6 -39.55 -7.6 -41.2 -6.45 -42.35 -5.3 -43.5 -3.65 -43.5 -2.0 -43.5 -0.85 -42.35 L-0.6 -42.1 Q4.35 -45.7 10.3 -46.95 M16.05 23.0 Q16.7 22.4 17.55 22.4 18.4 22.4 19.0 23.0 19.65 23.65 19.65 24.5 19.65 25.35 19.0 25.95 18.4 26.6 17.55 26.6 16.7 26.6 16.05 25.95 15.45 25.35 15.45 24.5 15.45 23.65 16.05 23.0 M2.5 30.0 Q0.75 31.75 -1.75 31.75 -4.25 31.75 -6.0 30.0 -7.75 28.25 -7.75 25.75 -7.75 23.25 -6.0 21.5 -4.25 19.75 -1.75 19.75 0.75 19.75 2.5 21.5 4.25 23.25 4.25 25.75 4.25 28.25 2.5 30.0 M-18.9 -35.4 Q-18.2 -36.1 -17.25 -36.1 -16.3 -36.1 -15.6 -35.4 -14.9 -34.7 -14.9 -33.75 -14.9 -32.8 -15.6 -32.1 -16.3 -31.4 -17.25 -31.4 -18.2 -31.4 -18.9 -32.1 -19.6 -32.8 -19.6 -33.75 -19.6 -34.7 -18.9 -35.4 M-23.75 -3.0 Q-24.45 -2.25 -25.5 -2.25 -26.55 -2.25 -27.3 -3.0 -28.0 -3.7 -28.0 -4.75 -28.0 -5.8 -27.3 -6.55 -26.55 -7.25 -25.5 -7.25 -24.45 -7.25 -23.75 -6.55 -23.0 -5.8 -23.0 -4.75 -23.0 -3.7 -23.75 -3.0 M-18.5 10.25 Q-18.5 10.75 -18.9 11.1 -19.25 11.5 -19.75 11.5 -20.25 11.5 -20.65 11.1 L-21.0 10.25 -20.65 9.35 Q-20.25 9.0 -19.75 9.0 -19.25 9.0 -18.9 9.35 -18.5 9.75 -18.5 10.25" fill="#696969" fill-rule="evenodd" stroke="none"/>
    </g>
    <g id="sprite2" transform="matrix(1.0, 0.0, 0.0, 1.0, 22.15, 0.0)">
      <use height="401.95" transform="matrix(1.0, 0.0, 0.0, 1.0, 0.0, 0.0)" width="7.0" xlink:href="#shape2"/>
      <use height="20.1" transform="matrix(1.0, 0.0, 0.0, 1.0, -22.15, 353.25)" width="51.3" xlink:href="#sprite3"/>
      <use height="20.1" transform="matrix(1.0, 0.0, 0.0, 1.0, -22.15, 229.25)" width="51.3" xlink:href="#sprite3"/>
    </g>
    <g id="shape2" transform="matrix(1.0, 0.0, 0.0, 1.0, 0.0, 0.0)">
      <path d="M7.0 0.0 L7.0 401.95 0.0 401.95 0.0 0.0 7.0 0.0" fill="#000000" fill-opacity="0.101960786" fill-rule="evenodd" stroke="none"/>
    </g>
    <g id="sprite3" transform="matrix(1.0, 0.0, 0.0, 1.0, 25.65, 20.1)">
      <use height="20.1" transform="matrix(1.0, 0.0, 0.0, 1.0, -25.65, -20.1)" width="51.3" xlink:href="#shape3"/>
    </g>
    <g id="shape3" transform="matrix(1.0, 0.0, 0.0, 1.0, 25.65, 20.1)">
      <path d="M13.0 -13.85 L3.5 -13.85 3.5 -20.1 25.65 -20.1 25.65 -13.85 17.15 -13.85 3.5 -0.25 3.5 -4.35 7.9 -8.75 3.5 -8.75 3.5 -11.5 10.65 -11.5 13.0 -13.85 M-3.5 -11.5 L-3.5 -8.75 -7.85 -8.75 -3.5 -4.4 -3.5 0.0 -17.35 -13.85 -25.65 -13.85 -25.65 -20.1 -3.5 -20.1 -3.5 -13.85 -12.95 -13.85 -10.6 -11.5 -3.5 -11.5" fill="#000000" fill-opacity="0.101960786" fill-rule="evenodd" stroke="none"/>
    </g>
    <g id="sprite4" transform="matrix(1.0, 0.0, 0.0, 1.0, 22.15, 0.0)">
      <use height="401.95" transform="matrix(1.0, 0.0, 0.0, 1.0, 0.0, 0.0)" width="7.0" xlink:href="#shape2"/>
      <use height="20.1" transform="matrix(1.0, 0.0, 0.0, 1.0, -22.15, 78.75)" width="51.3" xlink:href="#sprite3"/>
      <use height="20.1" transform="matrix(1.0, 0.0, 0.0, 1.0, -22.15, 127.75)" width="51.3" xlink:href="#sprite3"/>
      <use height="20.1" transform="matrix(1.0, 0.0, 0.0, 1.0, -22.15, 170.25)" width="51.3" xlink:href="#sprite3"/>
      <use height="20.1" transform="matrix(1.0, 0.0, 0.0, 1.0, -22.15, 303.25)" width="51.3" xlink:href="#sprite3"/>
      <use height="20.1" transform="matrix(1.0, 0.0, 0.0, 1.0, -22.15, 259.25)" width="51.3" xlink:href="#sprite3"/>
    </g>
    <g id="sprite5" transform="matrix(1.0, 0.0, 0.0, 1.0, 22.15, 0.0)">
      <use height="401.95" transform="matrix(1.0, 0.0, 0.0, 1.0, 0.0, 0.0)" width="7.0" xlink:href="#shape2"/>
      <use height="20.1" transform="matrix(1.0, 0.0, 0.0, 1.0, -22.15, 58.75)" width="51.3" xlink:href="#sprite3"/>
      <use height="20.1" transform="matrix(1.0, 0.0, 0.0, 1.0, -22.15, 137.75)" width="51.3" xlink:href="#sprite3"/>
      <use height="20.1" transform="matrix(1.0, 0.0, 0.0, 1.0, -22.15, 170.25)" width="51.3" xlink:href="#sprite3"/>
      <use height="20.1" transform="matrix(1.0, 0.0, 0.0, 1.0, -22.15, 323.25)" width="51.3" xlink:href="#sprite3"/>
      <use height="20.1" transform="matrix(1.0, 0.0, 0.0, 1.0, -22.15, 199.25)" width="51.3" xlink:href="#sprite3"/>
    </g>
    <g id="sprite6" transform="matrix(1.0, 0.0, 0.0, 1.0, 0.0, 0.0)">
      <use height="73.4" transform="matrix(1.0, 0.0, 0.0, 1.0, 0.0, 0.0)" width="469.45" xlink:href="#shape4"/>
    </g>
    <g id="shape4" transform="matrix(1.0, 0.0, 0.0, 1.0, 0.0, 0.0)">
      <path d="M469.45 54.1 Q434.6 82.05 340.1 69.55 270.35 60.35 191.3 33.85 149.95 25.0 106.55 30.05 86.55 32.4 58.9 38.15 39.9 42.15 0.0 51.6 89.5 -4.4 168.5 0.35 183.0 1.2 224.75 13.4 L264.0 25.05 307.35 37.45 Q359.7 51.75 395.75 56.45 442.25 62.5 469.45 54.1" fill="#000000" fill-opacity="0.101960786" fill-rule="evenodd" stroke="none"/>
    </g>
    <g id="shape5" transform="matrix(1.0, 0.0, 0.0, 1.0, 32.0, -458.0)">
      <path d="M999.9 725.9 L-32.0 725.9 -32.0 488.35 Q41.9 501.1 97.0 482.1 149.55 463.55 217.05 468.7 289.85 474.35 350.95 508.85 549.0 599.3 609.95 484.75 L821.95 484.75 Q921.5 490.45 999.9 458.0 L999.9 725.9" fill="url(#gradient2)" fill-rule="evenodd" stroke="none"/>
    </g>
    <linearGradient gradientTransform="matrix(-1.0E-4, -0.1034, 0.1632, -1.0E-4, 482.7, 548.95)" gradientUnits="userSpaceOnUse" id="gradient2" spreadMethod="pad" x1="-819.2" x2="819.2">
      <stop offset="0.0" stop-color="#9e7771"/>
      <stop offset="1.0" stop-color="#8e8e8e"/>
    </linearGradient>
    <g id="sprite7" transform="matrix(1.0, 0.0, 0.0, 1.0, 2.0, 0.0)">
      <use height="50.0" transform="matrix(1.0, 0.0, 0.0, 1.0, -2.0, 0.0)" width="14.0" xlink:href="#shape6"/>
    </g>
    <g id="shape6" transform="matrix(1.0, 0.0, 0.0, 1.0, 2.0, 0.0)">
      <path d="M10.0 0.0 L10.0 50.0 0.0 50.0 0.0 0.0 10.0 0.0" fill="#575757" fill-rule="evenodd" stroke="none"/>
      <path d="M12.0 9.0 L-2.0 9.0 -2.0 7.0 12.0 7.0 12.0 9.0 M12.0 13.0 L-2.0 13.0 -2.0 11.0 12.0 11.0 12.0 13.0 M12.0 21.0 L-2.0 21.0 -2.0 19.0 12.0 19.0 12.0 21.0 M12.0 17.0 L-2.0 17.0 -2.0 15.0 12.0 15.0 12.0 17.0" fill="#575757" fill-rule="evenodd" stroke="none"/>
    </g>
    <g id="sprite8" transform="matrix(1.0, 0.0, 0.0, 1.0, 139.9, 63.35)">
      <use height="142.45" transform="matrix(1.0, 0.0, 0.0, 1.0, -139.9, -63.35)" width="322.45" xlink:href="#shape7"/>
    </g>
    <g id="shape7" transform="matrix(1.0, 0.0, 0.0, 1.0, 139.9, 63.35)">
      <path d="M8.05 -63.2 L8.35 -63.35 14.6 -60.25 23.3 -57.25 24.35 -57.25 18.95 -54.35 14.9 -55.9 11.25 -54.75 6.55 -56.75 6.8 -59.2 8.05 -63.2 M26.35 -56.15 L32.9 -49.1 26.7 -50.8 26.35 -56.15 M59.4 -12.6 L65.0 -4.7 61.65 -0.3 59.95 -0.3 59.4 -12.6 M21.4 -21.9 L21.95 -19.35 23.05 -14.05 30.2 1.55 32.5 6.55 25.85 -0.9 21.2 -9.35 15.55 -17.7 13.45 -21.9 19.0 -17.45 21.4 -21.9 M8.1 -0.45 L3.1 -7.55 4.7 -14.2 8.1 -6.35 8.1 -0.45 M19.2 27.8 L11.75 27.8 5.3 29.2 1.65 36.85 1.4 37.95 4.2 38.6 1.1 56.25 -0.75 47.75 1.4 37.95 -0.6 37.5 -2.45 38.65 -4.2 48.0 -2.8 61.9 0.65 70.8 -4.95 63.75 -7.4 41.6 -10.45 43.4 -17.7 31.3 -22.0 23.95 -26.7 29.95 -31.35 36.0 -35.35 31.45 -39.5 30.55 -45.2 21.75 -46.4 24.2 -51.0 20.3 -48.3 27.05 -55.15 22.55 -60.4 14.25 -63.6 16.1 -64.2 15.4 -68.95 10.35 -63.6 10.15 -61.95 10.4 -58.15 11.25 -53.1 11.25 -46.75 7.65 -42.8 5.35 -40.55 4.45 -39.95 5.75 -36.35 9.25 -37.55 15.3 -31.7 16.5 -29.3 18.9 -27.7 12.6 -23.4 15.7 -24.85 7.65 -21.4 9.25 -21.4 6.55 -11.95 23.35 -8.45 26.2 -8.45 19.75 -2.4 24.95 -4.8 13.25 -10.7 2.1 0.0 14.25 1.8 11.65 6.05 22.3 6.05 10.6 11.35 17.7 11.35 15.3 19.2 27.8 M19.3 38.7 L21.85 38.35 26.25 52.6 22.25 46.95 19.3 38.7 M67.7 -0.9 L76.15 7.5 68.9 4.4 66.45 -2.7 67.7 -0.9 M92.35 31.85 L89.3 27.0 82.0 22.3 80.8 17.7 78.55 14.25 78.55 9.9 80.9 12.25 93.55 28.8 98.85 33.65 92.35 31.85 M104.15 38.6 L109.55 43.55 124.45 52.05 113.55 52.45 106.5 46.4 104.15 38.6 M131.5 67.15 L123.6 62.95 122.1 56.7 128.45 60.95 131.5 67.15 M-24.35 44.65 L-22.4 43.3 -19.8 43.75 -21.4 57.3 -18.55 67.15 -23.4 59.1 -24.35 44.65 M-67.8 17.05 L-71.3 19.75 -72.35 18.45 -70.6 14.05 -67.8 17.05 M-62.95 28.4 L-62.95 34.0 -67.8 29.05 -67.8 23.1 -62.95 28.4" fill="#b2bfd3" fill-rule="evenodd" stroke="none"/>
      <path d="M42.6 74.7 L35.55 74.45 36.0 70.35 29.7 59.85 27.25 68.65 24.0 73.2 24.0 74.45 2.7 74.45 -13.6 72.6 -9.9 67.15 -12.35 65.55 -13.3 61.75 -11.15 53.8 -17.75 58.65 -15.35 65.95 -20.65 71.8 -44.0 69.15 -37.3 65.95 -30.4 57.45 -28.8 48.85 -29.4 48.0 -24.35 44.65 -23.4 59.1 -18.55 67.15 -21.4 57.3 -19.8 43.75 -12.75 44.75 -10.45 43.4 -7.4 41.6 -4.95 63.75 0.65 70.8 -2.8 61.9 -4.2 48.0 -2.45 38.65 -0.6 37.5 1.4 37.95 -0.75 47.75 1.1 56.25 4.2 38.6 11.1 40.1 19.3 38.7 22.25 46.95 26.25 52.6 21.85 38.35 34.9 45.75 31.9 51.0 39.75 62.55 42.6 74.7 M-118.0 45.65 L-139.9 39.7 -117.5 30.65 -99.55 22.3 -85.2 10.05 -83.0 8.95 -72.65 6.9 -68.9 5.2 -65.25 -0.05 -64.7 2.05 -55.8 -0.45 -50.15 -3.2 -43.65 -8.4 -39.65 -9.15 -46.9 -0.75 -39.8 -4.85 -30.1 -11.7 -19.65 -21.05 -29.55 -8.4 -37.1 -1.9 -46.75 7.65 -53.1 11.25 -58.15 11.25 -61.95 10.4 -63.6 10.15 -68.95 10.35 -64.2 15.4 -67.8 17.05 -70.6 14.05 -72.35 18.45 -73.45 17.05 -77.75 19.9 -77.75 15.05 -101.35 36.85 -118.0 45.65 M-8.15 -46.35 L1.1 -56.6 4.1 -61.3 8.05 -63.2 6.8 -59.2 6.55 -56.75 6.55 -56.65 -3.35 -46.65 -8.15 -46.35 M42.2 -0.9 L59.4 -12.6 59.95 -0.3 58.2 -0.3 53.55 11.25 51.95 4.4 47.25 12.6 45.1 8.15 36.6 16.7 33.55 14.1 26.7 24.35 26.6 17.25 33.85 8.05 42.2 -0.9 M21.95 -19.35 L26.7 -19.35 31.8 -22.65 31.8 -13.25 33.55 -6.55 30.2 1.55 23.05 -14.05 21.95 -19.35 M49.35 17.9 L56.0 16.1 51.15 24.75 57.65 33.65 55.6 41.55 53.8 37.25 43.5 48.4 46.95 35.5 45.5 26.75 49.35 17.9 M-17.7 31.3 L-19.6 36.7 -22.6 32.8 -26.6 34.85 -26.7 29.95 -22.0 23.95 -17.7 31.3" fill="#7b86a2" fill-rule="evenodd" stroke="none"/>
      <path d="M24.35 -57.25 L25.3 -57.25 26.35 -56.15 26.7 -50.8 32.9 -49.1 36.25 -45.55 45.25 -31.2 49.0 -31.2 58.4 -19.85 77.4 -4.5 92.6 14.1 108.75 27.4 130.15 40.9 155.35 54.45 182.55 65.8 151.15 74.7 111.3 77.85 102.6 59.35 99.6 47.2 91.7 36.3 84.0 27.2 76.35 23.35 73.0 15.85 67.7 11.65 67.7 6.55 63.25 5.45 60.05 1.7 59.95 -0.3 61.65 -0.3 65.0 -4.7 59.4 -12.6 42.2 -0.9 39.85 -4.35 41.45 -10.55 39.85 -13.8 39.85 -21.05 34.2 -27.5 28.15 -36.25 19.4 -43.3 12.15 -47.55 6.35 -54.25 6.55 -56.65 6.55 -56.75 11.25 -54.75 14.9 -55.9 18.95 -54.35 24.35 -57.25 M68.65 76.9 L56.9 75.95 63.25 61.35 59.25 46.15 66.1 33.05 66.1 48.15 72.0 60.3 68.65 76.9 M-44.0 69.15 L-51.6 65.3 -56.1 53.25 -61.1 49.6 -62.2 45.35 -67.15 39.95 -64.75 48.15 -66.2 57.9 -71.85 55.05 -93.4 50.8 -90.85 47.75 -87.45 47.75 -85.45 42.1 -81.55 40.5 -78.95 33.05 -72.35 18.45 -71.3 19.75 -67.8 17.05 -61.2 19.9 -53.9 28.8 -46.65 35.25 -41.5 44.85 -37.75 44.4 -29.7 48.15 -29.4 48.0 -28.8 48.85 -30.4 57.45 -37.3 65.95 -44.0 69.15 M-15.6 -9.35 L-15.6 -17.25 -13.3 -26.3 -6.45 -33.4 -9.65 -24.5 -9.55 -12.65 -9.5 -12.7 -6.6 -16.6 -1.95 -16.6 -0.95 -21.45 1.4 -21.45 1.4 -25.9 3.6 -27.3 5.75 -33.15 4.45 -33.15 1.0 -37.45 2.2 -43.7 5.15 -49.85 5.3 -37.6 7.7 -33.4 11.6 -31.4 14.0 -31.4 19.0 -27.5 21.4 -21.9 19.0 -17.45 13.45 -21.9 15.55 -17.7 21.2 -9.35 25.85 -0.9 32.5 6.55 33.85 8.05 26.6 17.25 19.2 27.8 11.35 15.3 11.35 17.7 6.05 10.6 6.05 22.3 1.8 11.65 0.0 14.25 -10.7 2.1 -4.8 13.25 -2.4 24.95 -8.45 19.75 -8.45 26.2 -11.95 23.35 -21.4 6.55 -21.4 9.25 -24.85 7.65 -23.4 15.7 -27.7 12.6 -29.3 18.9 -31.7 16.5 -37.55 15.3 -36.35 9.25 -39.95 5.75 -40.55 4.45 -29.05 -0.3 -26.5 -2.0 -21.4 -0.7 -19.1 -4.5 -17.1 -3.1 -15.65 -8.55 -15.5 -9.3 -15.6 -9.35 M8.1 -0.45 L8.1 -6.35 4.7 -14.2 3.1 -7.55 8.1 -0.45 M67.7 -0.9 L66.45 -2.7 68.9 4.4 76.15 7.5 67.7 -0.9 M92.35 31.85 L98.85 33.65 93.55 28.8 80.9 12.25 78.55 9.9 78.55 14.25 80.8 17.7 82.0 22.3 89.3 27.0 92.35 31.85 M104.15 38.6 L106.5 46.4 113.55 52.45 124.45 52.05 109.55 43.55 104.15 38.6 M131.5 67.15 L128.45 60.95 122.1 56.7 123.6 62.95 131.5 67.15 M-62.95 28.4 L-67.8 23.1 -67.8 29.05 -62.95 34.0 -62.95 28.4" fill="#7c7da1" fill-rule="evenodd" stroke="none"/>
      <path d="M111.3 77.85 L95.4 79.1 68.65 76.9 72.0 60.3 66.1 48.15 66.1 33.05 59.25 46.15 63.25 61.35 56.9 75.95 42.6 74.7 39.75 62.55 31.9 51.0 34.9 45.75 21.85 38.35 19.3 38.7 11.1 40.1 4.2 38.6 1.4 37.95 1.65 36.85 5.3 29.2 11.75 27.8 19.2 27.8 26.6 17.25 26.7 24.35 33.55 14.1 36.6 16.7 45.1 8.15 47.25 12.6 51.95 4.4 53.55 11.25 58.2 -0.3 59.95 -0.3 60.05 1.7 63.25 5.45 67.7 6.55 67.7 11.65 73.0 15.85 76.35 23.35 84.0 27.2 91.7 36.3 99.6 47.2 102.6 59.35 111.3 77.85 M35.55 74.45 L24.0 74.45 24.0 73.2 27.25 68.65 29.7 59.85 36.0 70.35 35.55 74.45 M-13.6 72.6 L-20.65 71.8 -15.35 65.95 -17.75 58.65 -11.15 53.8 -13.3 61.75 -12.35 65.55 -9.9 67.15 -13.6 72.6 M-51.6 65.3 L-66.2 57.9 -64.75 48.15 -67.15 39.95 -62.2 45.35 -61.1 49.6 -56.1 53.25 -51.6 65.3 M-93.4 50.8 L-118.0 45.65 -101.35 36.85 -77.75 15.05 -77.75 19.9 -73.45 17.05 -72.35 18.45 -78.95 33.05 -81.55 40.5 -85.45 42.1 -87.45 47.75 -90.85 47.75 -93.4 50.8 M-83.0 8.95 L-74.05 4.55 -58.7 -10.15 -50.6 -16.45 -44.55 -22.65 -39.15 -26.75 -35.5 -30.2 -19.1 -37.25 -15.1 -41.5 -9.25 -45.15 -8.15 -46.35 -3.35 -46.65 6.55 -56.65 6.35 -54.25 12.15 -47.55 19.4 -43.3 28.15 -36.25 34.2 -27.5 39.85 -21.05 39.85 -13.8 41.45 -10.55 39.85 -4.35 42.2 -0.9 33.85 8.05 32.5 6.55 30.2 1.55 33.55 -6.55 31.8 -13.25 31.8 -22.65 26.7 -19.35 21.95 -19.35 21.4 -21.9 19.0 -27.5 14.0 -31.4 11.6 -31.4 7.7 -33.4 5.3 -37.6 5.15 -49.85 2.2 -43.7 1.0 -37.45 4.45 -33.15 5.75 -33.15 3.6 -27.3 1.4 -25.9 1.4 -21.45 -0.95 -21.45 -1.95 -16.6 -6.6 -16.6 -9.5 -12.7 -9.55 -12.65 -9.65 -24.5 -6.45 -33.4 -13.3 -26.3 -15.6 -17.25 -15.6 -9.35 -15.65 -8.55 -17.1 -3.1 -19.1 -4.5 -21.4 -0.7 -26.5 -2.0 -29.05 -0.3 -40.55 4.45 -42.8 5.35 -46.75 7.65 -37.1 -1.9 -29.55 -8.4 -19.65 -21.05 -30.1 -11.7 -39.8 -4.85 -46.9 -0.75 -39.65 -9.15 -43.65 -8.4 -50.15 -3.2 -55.8 -0.45 -64.7 2.05 -65.25 -0.05 -68.9 5.2 -72.65 6.9 -83.0 8.95 M49.35 17.9 L45.5 26.75 46.95 35.5 43.5 48.4 53.8 37.25 55.6 41.55 57.65 33.65 51.15 24.75 56.0 16.1 49.35 17.9 M-26.7 29.95 L-26.6 34.85 -22.6 32.8 -19.6 36.7 -17.7 31.3 -10.45 43.4 -12.75 44.75 -19.8 43.75 -22.4 43.3 -24.35 44.65 -29.4 48.0 -29.7 48.15 -37.75 44.4 -41.5 44.85 -46.65 35.25 -53.9 28.8 -61.2 19.9 -67.8 17.05 -64.2 15.4 -63.6 16.1 -60.4 14.25 -55.15 22.55 -48.3 27.05 -44.8 29.4 -39.5 30.55 -35.35 31.45 -31.35 36.0 -26.7 29.95" fill="#5b697f" fill-rule="evenodd" stroke="none"/>
      <path d="M-39.5 30.55 L-44.8 29.4 -48.3 27.05 -51.0 20.3 -46.4 24.2 -45.2 21.75 -39.5 30.55" fill="#8787a4" fill-rule="evenodd" stroke="none"/>
    </g>
  </defs>
</svg>
